<?xml version="1.0" encoding="UTF-8"?>
<!DOCTYPE svg PUBLIC "-//W3C//DTD SVG 1.1//EN" "http://www.w3.org/Graphics/SVG/1.1/DTD/svg11.dtd">
<svg xmlns="http://www.w3.org/2000/svg" version="1.1" width="80px" height="80px" style="shape-rendering:geometricPrecision; text-rendering:geometricPrecision; image-rendering:optimizeQuality; fill-rule:evenodd; clip-rule:evenodd" xmlns:xlink="http://www.w3.org/1999/xlink">
<g><path style="opacity:1" fill="#fcfbfb" d="M -0.5,-0.5 C 26.1667,-0.5 52.8333,-0.5 79.5,-0.5C 79.5,26.1667 79.5,52.8333 79.5,79.5C 52.8333,79.5 26.1667,79.5 -0.5,79.5C -0.5,52.8333 -0.5,26.1667 -0.5,-0.5 Z"/></g>
<g><path style="opacity:1" fill="#fc3d95" d="M 50.5,9.5 C 57.1583,10.502 57.1583,11.502 50.5,12.5C 48.8102,12.8564 47.8102,13.8564 47.5,15.5C 46.7784,15.9175 46.2784,16.5842 46,17.5C 43.6668,12.9514 45.1668,10.2847 50.5,9.5 Z"/></g>
<g><path style="opacity:1" fill="#fd7e91" d="M 28.5,12.5 C 29.8333,14.5 29.8333,16.5 28.5,18.5C 26.5615,20.1628 24.2282,20.8294 21.5,20.5C 23.8381,19.3183 25.8381,17.6517 27.5,15.5C 26.91,14.2011 25.91,13.3678 24.5,13C 25.7932,12.51 27.1266,12.3433 28.5,12.5 Z"/></g>
<g><path style="opacity:1" fill="#f8db9f" d="M 45.5,8.5 C 40.0614,10.6125 37.3947,14.6125 37.5,20.5C 36.791,21.404 35.791,21.7373 34.5,21.5C 33.0484,20.6981 31.3817,20.1981 29.5,20C 30.056,19.6174 30.3893,19.1174 30.5,18.5C 31.4916,18.6716 32.1583,18.3382 32.5,17.5C 34.6,14.8959 36.9334,12.3959 39.5,10C 41.3453,8.87201 43.3453,8.37201 45.5,8.5 Z"/></g>
<g><path style="opacity:1" fill="#fb3b84" d="M 28.5,12.5 C 31.2974,12.9666 32.6308,14.6333 32.5,17.5C 32.1583,18.3382 31.4916,18.6716 30.5,18.5C 29.8333,18.5 29.1667,18.5 28.5,18.5C 29.8333,16.5 29.8333,14.5 28.5,12.5 Z"/></g>
<g><path style="opacity:1" fill="#fb8362" d="M 45.5,8.5 C 47.4147,8.21552 49.0813,8.54885 50.5,9.5C 45.1668,10.2847 43.6668,12.9514 46,17.5C 46.2784,16.5842 46.7784,15.9175 47.5,15.5C 48.8333,18.5 50.1667,21.5 51.5,24.5C 50.5084,24.3284 49.8417,24.6618 49.5,25.5C 49.1667,25.5 48.8333,25.5 48.5,25.5C 46.4418,20.3043 42.7751,18.6377 37.5,20.5C 37.3947,14.6125 40.0614,10.6125 45.5,8.5 Z"/></g>
<g><path style="opacity:1" fill="#f9a276" d="M 28.5,18.5 C 29.1667,18.5 29.8333,18.5 30.5,18.5C 30.3893,19.1174 30.056,19.6174 29.5,20C 31.3817,20.1981 33.0484,20.6981 34.5,21.5C 32.901,21.2322 31.5676,21.5655 30.5,22.5C 27.075,22.3668 26.7417,23.0335 29.5,24.5C 28.8333,24.5 28.5,24.8333 28.5,25.5C 27.3951,24.3995 26.0618,23.7329 24.5,23.5C 22.7162,23.8925 21.0495,24.5592 19.5,25.5C 19.1201,23.302 19.7868,21.6354 21.5,20.5C 24.2282,20.8294 26.5615,20.1628 28.5,18.5 Z"/></g>
<g><path style="opacity:1" fill="#fc4635" d="M 48.5,25.5 C 44.8687,25.9677 41.5354,25.301 38.5,23.5C 38.1667,23.8333 37.8333,24.1667 37.5,24.5C 39.5683,27.2853 40.9016,30.2853 41.5,33.5C 41.362,37.2861 40.6953,37.2861 39.5,33.5C 39.5674,32.0413 39.2341,30.7079 38.5,29.5C 36.9994,25.7615 34.3327,23.4282 30.5,22.5C 31.5676,21.5655 32.901,21.2322 34.5,21.5C 35.791,21.7373 36.791,21.404 37.5,20.5C 42.7751,18.6377 46.4418,20.3043 48.5,25.5 Z"/></g>
<g><path style="opacity:1" fill="#fb928f" d="M 13.5,21.5 C 16.0414,22.6228 16.0414,23.9561 13.5,25.5C 12.3744,24.1916 12.3744,22.8583 13.5,21.5 Z"/></g>
<g><path style="opacity:1" fill="#fb315f" d="M 53.5,17.5 C 56.5,18.5 58.5,20.5 59.5,23.5C 59.5,24.8333 59.5,26.1667 59.5,27.5C 57.1667,27.5 54.8333,27.5 52.5,27.5C 53.2071,24.2139 53.5405,20.8806 53.5,17.5 Z"/></g>
<g><path style="opacity:1" fill="#f3e9f2" d="M 24.5,23.5 C 26.0618,23.7329 27.3951,24.3995 28.5,25.5C 29.0318,33.1398 32.0318,39.4732 37.5,44.5C 39.8193,47.2945 42.8193,49.1278 46.5,50C 51.1667,50.6667 55.8333,50.6667 60.5,50C 62.3237,49.34 63.657,48.1733 64.5,46.5C 65.5,45.8333 66.5,45.1667 67.5,44.5C 67.2785,46.6636 66.2785,48.3303 64.5,49.5C 60.9617,51.7685 57.295,53.7685 53.5,55.5C 50.632,56.3527 47.9653,57.686 45.5,59.5C 44.1667,59.5 42.8333,59.5 41.5,59.5C 40.4784,53.4682 37.1451,49.1348 31.5,46.5C 29.7839,46.3713 28.1172,46.038 26.5,45.5C 25.5,45.5 24.5,45.5 23.5,45.5C 22.448,45.6495 21.448,45.4828 20.5,45C 22.5571,43.2806 24.2237,41.2806 25.5,39C 25.1667,38.5 24.8333,38 24.5,37.5C 23.1861,38.3128 22.0195,39.3128 21,40.5C 20.6012,40.2716 20.4346,39.9382 20.5,39.5C 20.5,39.1667 20.5,38.8333 20.5,38.5C 22.8978,34.597 24.2311,30.2637 24.5,25.5C 24.5,24.8333 24.5,24.1667 24.5,23.5 Z"/></g>
<g><path style="opacity:1" fill="#fc536f" d="M 30.5,22.5 C 34.3327,23.4282 36.9994,25.7615 38.5,29.5C 36.8828,30.038 35.2161,30.3713 33.5,30.5C 33.1551,27.8021 31.8218,25.8021 29.5,24.5C 26.7417,23.0335 27.075,22.3668 30.5,22.5 Z"/></g>
<g><path style="opacity:1" fill="#fc90ca" d="M 24.5,23.5 C 24.5,24.1667 24.5,24.8333 24.5,25.5C 21.7079,25.6225 19.7079,26.9558 18.5,29.5C 17.0222,29.762 15.6888,29.4287 14.5,28.5C 15.9469,27.0652 17.6136,26.0652 19.5,25.5C 21.0495,24.5592 22.7162,23.8925 24.5,23.5 Z"/></g>
<g><path style="opacity:1" fill="#fc6a17" d="M 48.5,25.5 C 48.8333,25.5 49.1667,25.5 49.5,25.5C 49.7214,28.2788 49.388,30.9455 48.5,33.5C 46.1667,33.5 43.8333,33.5 41.5,33.5C 40.9016,30.2853 39.5683,27.2853 37.5,24.5C 37.8333,24.1667 38.1667,23.8333 38.5,23.5C 41.5354,25.301 44.8687,25.9677 48.5,25.5 Z"/></g>
<g><path style="opacity:1" fill="#fc5945" d="M 50.5,12.5 C 50.2729,14.9328 51.2729,16.5994 53.5,17.5C 53.5405,20.8806 53.2071,24.2139 52.5,27.5C 54.8333,27.5 57.1667,27.5 59.5,27.5C 59.5,26.1667 59.5,24.8333 59.5,23.5C 60.404,24.209 60.7373,25.209 60.5,26.5C 60.5,27.8333 60.5,29.1667 60.5,30.5C 57.5,30.5 54.5,30.5 51.5,30.5C 51.5,28.5 51.5,26.5 51.5,24.5C 50.1667,21.5 48.8333,18.5 47.5,15.5C 47.8102,13.8564 48.8102,12.8564 50.5,12.5 Z"/></g>
<g><path style="opacity:1" fill="#dc44b4" d="M 24.5,25.5 C 24.2311,30.2637 22.8978,34.597 20.5,38.5C 20.9118,36.0274 19.9118,34.6941 17.5,34.5C 18.3007,32.9582 18.634,31.2915 18.5,29.5C 19.7079,26.9558 21.7079,25.6225 24.5,25.5 Z"/></g>
<g><path style="opacity:1" fill="#863cb0" d="M 17.5,34.5 C 19.9118,34.6941 20.9118,36.0274 20.5,38.5C 20.5,38.8333 20.5,39.1667 20.5,39.5C 18.8065,42.1897 16.4732,44.1897 13.5,45.5C 12.8333,45.1667 12.1667,44.8333 11.5,44.5C 11.3354,41.4816 11.502,38.4816 12,35.5C 14.302,39.4607 16.1354,39.1273 17.5,34.5 Z"/></g>
<g><path style="opacity:1" fill="#fc7539" d="M 28.5,25.5 C 31.73,31.6598 35.0633,37.8264 38.5,44C 38.2716,44.3988 37.9382,44.5654 37.5,44.5C 32.0318,39.4732 29.0318,33.1398 28.5,25.5 Z"/></g>
<g><path style="opacity:1" fill="#fc5730" d="M 61.5,26.5 C 62.1667,26.5 62.8333,26.5 63.5,26.5C 63.7399,29.5788 63.4066,32.5788 62.5,35.5C 63.376,36.2508 64.376,36.7508 65.5,37C 63.3652,38.5557 63.0319,40.3891 64.5,42.5C 64.106,44.7099 62.7727,46.0432 60.5,46.5C 59.3473,45.6868 59.3473,44.6868 60.5,43.5C 58.604,42.5344 56.604,42.2011 54.5,42.5C 60.6049,38.9466 62.9383,33.6132 61.5,26.5 Z"/></g>
<g><path style="opacity:1" fill="#fb3b45" d="M 69.5,36.5 C 67.3757,38.0592 65.709,40.0592 64.5,42.5C 63.0319,40.3891 63.3652,38.5557 65.5,37C 64.376,36.7508 63.376,36.2508 62.5,35.5C 63.4066,32.5788 63.7399,29.5788 63.5,26.5C 64.8038,23.1995 67.1372,21.3661 70.5,21C 68.6431,22.1824 67.6431,23.849 67.5,26C 68.9729,29.3358 69.6395,32.8358 69.5,36.5 Z"/></g>
<g><path style="opacity:1" fill="#fee55e" d="M 28.5,25.5 C 28.5,24.8333 28.8333,24.5 29.5,24.5C 31.8218,25.8021 33.1551,27.8021 33.5,30.5C 34.2341,31.7079 34.5674,33.0413 34.5,34.5C 34.8039,35.1499 35.1373,35.8165 35.5,36.5C 38.2572,37.0292 40.7572,38.0292 43,39.5C 42.3874,35.9047 43.5541,35.5713 46.5,38.5C 47.3219,36.8614 47.9886,35.1947 48.5,33.5C 49.388,30.9455 49.7214,28.2788 49.5,25.5C 49.8417,24.6618 50.5084,24.3284 51.5,24.5C 51.5,26.5 51.5,28.5 51.5,30.5C 51.5056,33.8502 52.5056,36.8502 54.5,39.5C 58.1185,37.5534 60.1185,34.5534 60.5,30.5C 60.5,29.1667 60.5,27.8333 60.5,26.5C 60.8333,26.5 61.1667,26.5 61.5,26.5C 62.9383,33.6132 60.6049,38.9466 54.5,42.5C 50.1716,42.0366 46.1716,42.8699 42.5,45C 44.2331,46.1889 45.8998,47.3556 47.5,48.5C 53.3538,50.1175 59.0205,49.4508 64.5,46.5C 63.657,48.1733 62.3237,49.34 60.5,50C 55.8333,50.6667 51.1667,50.6667 46.5,50C 42.8193,49.1278 39.8193,47.2945 37.5,44.5C 37.9382,44.5654 38.2716,44.3988 38.5,44C 35.0633,37.8264 31.73,31.6598 28.5,25.5 Z"/></g>
<g><path style="opacity:1" fill="#fdad22" d="M 39.5,33.5 C 40.6953,37.2861 41.362,37.2861 41.5,33.5C 43.8333,33.5 46.1667,33.5 48.5,33.5C 47.9886,35.1947 47.3219,36.8614 46.5,38.5C 43.5541,35.5713 42.3874,35.9047 43,39.5C 40.7572,38.0292 38.2572,37.0292 35.5,36.5C 35.1373,35.8165 34.8039,35.1499 34.5,34.5C 36.1172,33.962 37.7839,33.6287 39.5,33.5 Z"/></g>
<g><path style="opacity:1" fill="#fc8e2c" d="M 51.5,30.5 C 54.5,30.5 57.5,30.5 60.5,30.5C 60.1185,34.5534 58.1185,37.5534 54.5,39.5C 52.5056,36.8502 51.5056,33.8502 51.5,30.5 Z"/></g>
<g><path style="opacity:1" fill="#fc873c" d="M 38.5,29.5 C 39.2341,30.7079 39.5674,32.0413 39.5,33.5C 37.7839,33.6287 36.1172,33.962 34.5,34.5C 34.5674,33.0413 34.2341,31.7079 33.5,30.5C 35.2161,30.3713 36.8828,30.038 38.5,29.5 Z"/></g>
<g><path style="opacity:1" fill="#fec322" d="M 54.5,42.5 C 56.604,42.2011 58.604,42.5344 60.5,43.5C 59.3473,44.6868 59.3473,45.6868 60.5,46.5C 56.4552,48.1773 52.1219,48.8439 47.5,48.5C 45.8998,47.3556 44.2331,46.1889 42.5,45C 46.1716,42.8699 50.1716,42.0366 54.5,42.5 Z"/></g>
<g><path style="opacity:1" fill="#a3bdea" d="M 23.5,45.5 C 19.7274,47.2848 18.0607,50.2848 18.5,54.5C 17.6152,51.0636 15.9486,48.0636 13.5,45.5C 16.4732,44.1897 18.8065,42.1897 20.5,39.5C 20.4346,39.9382 20.6012,40.2716 21,40.5C 22.0195,39.3128 23.1861,38.3128 24.5,37.5C 24.8333,38 25.1667,38.5 25.5,39C 24.2237,41.2806 22.5571,43.2806 20.5,45C 21.448,45.4828 22.448,45.6495 23.5,45.5 Z"/></g>
<g><path style="opacity:1" fill="#2872ca" d="M 26.5,45.5 C 28.1172,46.038 29.7839,46.3713 31.5,46.5C 31.6741,48.861 32.0074,51.1944 32.5,53.5C 29.4222,50.966 26.4222,50.966 23.5,53.5C 23.3939,50.3855 24.3939,47.7188 26.5,45.5 Z"/></g>
<g><path style="opacity:1" fill="#fde48e" d="M 69.5,36.5 C 69.4162,39.3274 68.7496,41.994 67.5,44.5C 66.5,45.1667 65.5,45.8333 64.5,46.5C 59.0205,49.4508 53.3538,50.1175 47.5,48.5C 52.1219,48.8439 56.4552,48.1773 60.5,46.5C 62.7727,46.0432 64.106,44.7099 64.5,42.5C 65.709,40.0592 67.3757,38.0592 69.5,36.5 Z"/></g>
<g><path style="opacity:1" fill="#bed3ef" d="M 11.5,44.5 C 12.1667,44.8333 12.8333,45.1667 13.5,45.5C 15.9486,48.0636 17.6152,51.0636 18.5,54.5C 20.3725,61.7026 25.0391,65.7026 32.5,66.5C 37.558,66.7723 40.558,64.4389 41.5,59.5C 42.8333,59.5 44.1667,59.5 45.5,59.5C 43.4203,63.0865 40.7537,66.2532 37.5,69C 39.1341,69.4935 40.8008,69.6602 42.5,69.5C 42.8333,69.5 43.1667,69.5 43.5,69.5C 25.1262,70.6808 14.4595,62.3475 11.5,44.5 Z"/></g>
<g><path style="opacity:1" fill="#d4b5e8" d="M 64.5,49.5 C 65.1413,52.5605 64.1413,55.2272 61.5,57.5C 61.5,57.1667 61.5,56.8333 61.5,56.5C 58.9387,55.2329 56.272,55.2329 53.5,56.5C 53.5,56.1667 53.5,55.8333 53.5,55.5C 57.295,53.7685 60.9617,51.7685 64.5,49.5 Z"/></g>
<g><path style="opacity:1" fill="#eae9f7" d="M 32.5,53.5 C 33.1667,54.5 33.8333,55.5 34.5,56.5C 34.4344,62.1937 31.7677,63.8604 26.5,61.5C 24.3939,59.2812 23.3939,56.6145 23.5,53.5C 26.4222,50.966 29.4222,50.966 32.5,53.5 Z"/></g>
<g><path style="opacity:1" fill="#32b4dc" d="M 31.5,46.5 C 37.1451,49.1348 40.4784,53.4682 41.5,59.5C 38.5466,59.8504 36.2133,58.8504 34.5,56.5C 33.8333,55.5 33.1667,54.5 32.5,53.5C 32.0074,51.1944 31.6741,48.861 31.5,46.5 Z"/></g>
<g><path style="opacity:1" fill="#c53dba" d="M 61.5,56.5 C 58.0993,59.529 54.0993,60.8624 49.5,60.5C 50.5274,58.8058 51.8608,57.4725 53.5,56.5C 56.272,55.2329 58.9387,55.2329 61.5,56.5 Z"/></g>
<g><path style="opacity:1" fill="#5a2fa4" d="M 61.5,56.5 C 61.5,56.8333 61.5,57.1667 61.5,57.5C 60.6597,59.8525 59.3264,61.8525 57.5,63.5C 56.5267,62.016 55.1933,61.516 53.5,62C 51.3645,62.8763 50.0312,64.3763 49.5,66.5C 47.9414,68.2501 45.9414,69.2501 43.5,69.5C 43.1667,69.5 42.8333,69.5 42.5,69.5C 42.3505,68.448 42.5172,67.448 43,66.5C 44.9802,64.1013 47.1469,62.1013 49.5,60.5C 54.0993,60.8624 58.0993,59.529 61.5,56.5 Z"/></g>
<g><path style="opacity:1" fill="#2548a8" d="M 23.5,45.5 C 24.5,45.5 25.5,45.5 26.5,45.5C 24.3939,47.7188 23.3939,50.3855 23.5,53.5C 23.3939,56.6145 24.3939,59.2812 26.5,61.5C 28.1307,63.6433 30.1307,65.31 32.5,66.5C 25.0391,65.7026 20.3725,61.7026 18.5,54.5C 18.0607,50.2848 19.7274,47.2848 23.5,45.5 Z"/></g>
<g><path style="opacity:1" fill="#2d6cc5" d="M 34.5,56.5 C 36.2133,58.8504 38.5466,59.8504 41.5,59.5C 40.558,64.4389 37.558,66.7723 32.5,66.5C 30.1307,65.31 28.1307,63.6433 26.5,61.5C 31.7677,63.8604 34.4344,62.1937 34.5,56.5 Z"/></g>
<g><path style="opacity:1" fill="#88a6e3" d="M 57.5,63.5 C 55.1098,65.0198 52.4432,66.0198 49.5,66.5C 50.0312,64.3763 51.3645,62.8763 53.5,62C 55.1933,61.516 56.5267,62.016 57.5,63.5 Z"/></g>
<g><path style="opacity:1" fill="#8baae7" d="M 53.5,55.5 C 53.5,55.8333 53.5,56.1667 53.5,56.5C 51.8608,57.4725 50.5274,58.8058 49.5,60.5C 47.1469,62.1013 44.9802,64.1013 43,66.5C 42.5172,67.448 42.3505,68.448 42.5,69.5C 40.8008,69.6602 39.1341,69.4935 37.5,69C 40.7537,66.2532 43.4203,63.0865 45.5,59.5C 47.9653,57.686 50.632,56.3527 53.5,55.5 Z"/></g>
</svg>
